<svg width="36" height="37" viewBox="0 0 36 37" fill="none" xmlns="http://www.w3.org/2000/svg">
<circle cx="17.8993" cy="18.4794" r="14.1493" fill="white"/>
<path d="M33.3163 18.4804C33.3163 22.5695 31.6919 26.4911 28.8005 29.3825C25.9091 32.2739 21.9874 33.8983 17.8984 33.8983C13.8093 33.8983 9.88768 32.2739 6.99627 29.3825C4.10485 26.4911 2.48047 22.5695 2.48047 18.4804C2.48047 14.3913 4.10485 10.4697 6.99627 7.5783C9.88768 4.68688 13.8093 3.0625 17.8984 3.0625C21.9874 3.0625 25.9091 4.68688 28.8005 7.5783C31.6919 10.4697 33.3163 14.3913 33.3163 18.4804Z" fill="#121212"/>
<path d="M25.0102 11.2482C23.6802 10.6282 22.2402 10.1782 20.7402 9.91822C20.727 9.9178 20.7139 9.92027 20.7018 9.92545C20.6897 9.93064 20.6789 9.93841 20.6702 9.94822C20.4902 10.2782 20.2801 10.7082 20.1402 11.0382C18.5492 10.7982 16.9312 10.7982 15.3402 11.0382C15.2002 10.6982 14.9902 10.2782 14.8002 9.94822C14.7902 9.92822 14.7601 9.91822 14.7302 9.91822C13.2302 10.1782 11.8002 10.6282 10.4602 11.2482C10.4502 11.2482 10.4402 11.2582 10.4302 11.2682C7.71015 15.3382 6.96015 19.2982 7.33015 23.2182C7.33015 23.2382 7.34015 23.2582 7.36015 23.2682C9.16015 24.5882 10.8902 25.3882 12.6002 25.9182C12.6301 25.9282 12.6601 25.9182 12.6701 25.8982C13.0701 25.3482 13.4302 24.7682 13.7402 24.1582C13.7602 24.1182 13.7402 24.0782 13.7002 24.0682C13.1302 23.8482 12.5902 23.5882 12.0602 23.2882C12.0202 23.2682 12.0202 23.2082 12.0502 23.1782C12.1602 23.0982 12.2702 23.0082 12.3802 22.9282C12.4002 22.9082 12.4302 22.9082 12.4502 22.9182C15.8902 24.4882 19.6002 24.4882 23.0002 22.9182C23.0202 22.9082 23.0501 22.9082 23.0702 22.9282C23.1802 23.0182 23.2901 23.0982 23.4002 23.1882C23.4402 23.2182 23.4401 23.2782 23.3902 23.2982C22.8701 23.6082 22.3202 23.8582 21.7502 24.0782C21.7101 24.0882 21.7002 24.1382 21.7102 24.1682C22.0302 24.7782 22.3902 25.3582 22.7802 25.9082C22.8102 25.9182 22.8401 25.9282 22.8701 25.9182C24.5901 25.3882 26.3202 24.5882 28.1201 23.2682C28.1402 23.2582 28.1502 23.2382 28.1502 23.2182C28.5902 18.6882 27.4202 14.7582 25.0501 11.2682C25.0401 11.2582 25.0302 11.2482 25.0102 11.2482ZM14.2602 20.8282C13.2302 20.8282 12.3702 19.8782 12.3702 18.7082C12.3702 17.5382 13.2102 16.5882 14.2602 16.5882C15.3202 16.5882 16.1602 17.5482 16.1502 18.7082C16.1502 19.8782 15.3102 20.8282 14.2602 20.8282ZM21.2302 20.8282C20.2001 20.8282 19.3402 19.8782 19.3402 18.7082C19.3402 17.5382 20.1802 16.5882 21.2302 16.5882C22.2901 16.5882 23.1301 17.5482 23.1201 18.7082C23.1201 19.8782 22.2901 20.8282 21.2302 20.8282Z" fill="white"/>
<path d="M12.5252 26.1567C12.6239 26.1878 12.7921 26.1778 12.8802 26.0344C13.2843 25.4777 13.6486 24.8901 13.963 24.2715L13.9638 24.27C14.0048 24.1879 14.0116 24.0881 13.9696 23.9972C13.9314 23.9144 13.861 23.8572 13.781 23.8315C13.3137 23.6506 12.8663 23.442 12.4272 23.2054C12.4336 23.2005 12.44 23.1956 12.4463 23.1908C15.8887 24.7297 19.5953 24.731 23.0008 23.1928C23.0109 23.2007 23.0209 23.2085 23.0309 23.2163C22.5976 23.4559 22.1423 23.6585 21.6692 23.8415C21.56 23.8766 21.5006 23.9626 21.476 24.0316C21.4517 24.0996 21.4496 24.1771 21.473 24.2473L21.4794 24.2665L21.4888 24.2844C21.8143 24.9049 22.1803 25.4944 22.5762 26.0528L22.6235 26.1195L22.7011 26.1454C22.7019 26.1457 22.7031 26.1461 22.7047 26.1467C22.7279 26.1551 22.8321 26.1929 22.9455 26.1566C24.6859 25.6201 26.4374 24.8104 28.2573 23.4777C28.3499 23.4201 28.3945 23.3241 28.3997 23.2355C28.8439 18.6459 27.656 14.6605 25.257 11.1278L25.2437 11.1082L25.2269 11.0914C25.2264 11.091 25.2259 11.0904 25.2252 11.0897C25.2124 11.0766 25.1653 11.0288 25.0865 11.008C23.7441 10.3855 22.293 9.93366 20.7828 9.67189L20.7656 9.66891L20.7481 9.66835C20.6985 9.66676 20.649 9.67608 20.6033 9.69566C20.5576 9.71526 20.5168 9.74462 20.4837 9.78168L20.4645 9.80319L20.4507 9.82851C20.2979 10.1086 20.1242 10.4588 19.9874 10.7635M12.5252 26.1567C12.5238 26.1563 12.5225 26.1558 12.5211 26.1554L12.6002 25.9182L12.5261 26.157C12.5258 26.1569 12.5255 26.1568 12.5252 26.1567ZM12.5252 26.1567C10.7947 25.6203 9.04313 24.8106 7.22305 23.4777M7.22305 23.4777C7.23112 23.4827 7.23955 23.4874 7.24834 23.4918L7.36015 23.2682L7.21231 23.4698C7.21589 23.4724 7.21947 23.4751 7.22305 23.4777ZM7.22305 23.4777C7.13027 23.42 7.08562 23.3238 7.08062 23.235M7.08062 23.235C7.08083 23.2372 7.08105 23.2395 7.08126 23.2417L7.33015 23.2182H7.08015C7.08015 23.2238 7.08031 23.2294 7.08062 23.235ZM7.08062 23.235C6.70705 19.2635 7.46994 15.2477 10.2223 11.1293L10.236 11.1088L10.2534 11.0914C10.2535 11.0913 10.2537 11.0911 10.2539 11.0909C10.2575 11.0873 10.2746 11.0699 10.2952 11.0545C10.3072 11.0454 10.3348 11.0257 10.3748 11.0122M10.3748 11.0122C10.3683 11.0153 10.3617 11.0183 10.3552 11.0213L10.4602 11.2482V10.9982C10.4276 10.9982 10.399 11.0041 10.3748 11.0122ZM10.3748 11.0122C11.7289 10.3878 13.1732 9.93436 14.6875 9.67189L14.7086 9.66822H14.7302C14.7705 9.66822 14.818 9.67462 14.8655 9.6936C14.9082 9.7107 14.976 9.74864 15.0189 9.82703M15.0189 9.82703C15.0182 9.82585 15.0175 9.82466 15.0168 9.82348L14.8002 9.94822L15.0238 9.83642C15.0222 9.83323 15.0205 9.8301 15.0189 9.82703ZM15.0189 9.82703C15.1809 10.1087 15.3567 10.4534 15.4943 10.7633M15.4943 10.7633C15.4304 10.7722 15.3666 10.7814 15.3029 10.791L15.3402 11.0382L15.5713 10.943C15.5474 10.885 15.5216 10.8248 15.4943 10.7633ZM15.4943 10.7633C16.9849 10.5565 18.4969 10.5565 19.9874 10.7635M19.9874 10.7635C19.96 10.8247 19.934 10.884 19.91 10.9406L20.1402 11.0382L20.1774 10.791C20.1141 10.7815 20.0508 10.7723 19.9874 10.7635ZM20.8256 10.1872C22.2492 10.445 23.6156 10.8766 24.8805 11.4637C27.1812 14.8745 28.319 18.7033 27.909 23.1128C26.1928 24.3608 24.5426 25.1303 22.9018 25.6465C22.5886 25.1963 22.2962 24.7263 22.0301 24.2367C22.5382 24.0328 23.0335 23.8009 23.507 23.5196C23.6084 23.4692 23.672 23.3709 23.6785 23.2617C23.6847 23.1551 23.6362 23.0557 23.5557 22.9925C23.499 22.9462 23.4427 22.9026 23.3893 22.8614L23.388 22.8604C23.3348 22.8193 23.2845 22.7804 23.2347 22.7398C23.1253 22.6411 22.9837 22.6495 22.8938 22.6919C19.5617 24.2301 15.9292 24.2306 12.5558 22.6916C12.4678 22.6503 12.3306 22.6417 12.2225 22.7338C12.1682 22.7736 12.1145 22.8151 12.0637 22.8543L12.0623 22.8554C12.0068 22.8983 11.9547 22.9385 11.9031 22.976L11.8872 22.9876L11.8734 23.0014C11.802 23.0728 11.7744 23.1678 11.7793 23.2517C11.7843 23.3368 11.8274 23.4474 11.9407 23.5079C12.4209 23.7795 12.9102 24.0194 13.4226 24.2273C13.1626 24.7178 12.8693 25.1887 12.5481 25.6399C10.9234 25.1237 9.28018 24.3554 7.57149 23.113C7.22604 19.2893 7.96467 15.4302 10.6049 11.4568C11.8763 10.8725 13.2297 10.4433 14.6478 10.1867C14.8148 10.4876 14.9892 10.8425 15.109 11.1334L15.1836 11.3147L15.3774 11.2854C16.9437 11.0492 18.5366 11.0492 20.1029 11.2854L20.2946 11.3143L20.3703 11.1359C20.4905 10.8525 20.665 10.4907 20.8256 10.1872ZM15.9002 18.7061H15.9002V18.7082C15.9002 19.7685 15.1453 20.5782 14.2602 20.5782C13.3934 20.5782 12.6202 19.7667 12.6202 18.7082C12.6202 17.6479 13.375 16.8382 14.2602 16.8382C15.1555 16.8382 15.9092 17.6578 15.9002 18.7061ZM22.8701 18.7061V18.7082C22.8701 19.7695 22.1245 20.5782 21.2302 20.5782C20.3634 20.5782 19.5902 19.7667 19.5902 18.7082C19.5902 17.6479 20.345 16.8382 21.2302 16.8382C22.1255 16.8382 22.8792 17.6578 22.8701 18.7061ZM33.0663 18.4804C33.0663 22.5032 31.4682 26.3612 28.6237 29.2057C25.7792 32.0503 21.9211 33.6483 17.8984 33.6483C13.8756 33.6483 10.0176 32.0503 7.17304 29.2057C4.32851 26.3612 2.73047 22.5032 2.73047 18.4804C2.73047 14.4576 4.32851 10.5996 7.17304 7.75508C10.0176 4.91054 13.8756 3.3125 17.8984 3.3125C21.9211 3.3125 25.7792 4.91054 28.6237 7.75508C31.4682 10.5996 33.0663 14.4576 33.0663 18.4804ZM12.1202 18.7082C12.1202 19.9897 13.0669 21.0782 14.2602 21.0782C15.4747 21.0782 16.3996 19.9885 16.4002 18.7093C16.4106 17.438 15.4844 16.3382 14.2602 16.3382C13.0453 16.3382 12.1202 17.4285 12.1202 18.7082ZM19.0902 18.7082C19.0902 19.9897 20.0369 21.0782 21.2302 21.0782C22.4555 21.0782 23.3696 19.9876 23.3701 18.7093C23.3806 17.438 22.4544 16.3382 21.2302 16.3382C20.0153 16.3382 19.0902 17.4285 19.0902 18.7082Z" stroke="url(#paint0_linear_15895_37506)" stroke-width="0.5"/>
<defs>
<linearGradient id="paint0_linear_15895_37506" x1="7.60368" y1="4.84662" x2="26.2047" y2="36.0506" gradientUnits="userSpaceOnUse">
<stop stop-color="#FFEA7F"/>
<stop offset="1" stop-color="#AB5706"/>
</linearGradient>
</defs>
</svg>
