<svg xmlns="http://www.w3.org/2000/svg" width="97" height="96" viewBox="0 0 97 96" fill="none">
<g clip-path="url(#clip0_16906_76202)">
<path d="M48.5 96C75.0097 96 96.5 74.5097 96.5 48C96.5 21.4903 75.0097 0 48.5 0C21.9903 0 0.5 21.4903 0.5 48C0.5 74.5097 21.9903 96 48.5 96Z" fill="#550101"/>
<path fill-rule="evenodd" clip-rule="evenodd" d="M67.952 58.5715L54.249 31.1635C52.084 26.8335 45.904 26.8335 43.739 31.1635L30.038 58.5715C28.085 62.4775 30.925 67.0735 35.293 67.0735H62.698C67.065 67.0735 69.906 62.4775 67.953 58.5715H67.952ZM47.242 32.9145C47.964 31.4715 50.024 31.4715 50.746 32.9145L64.449 60.3225C64.5983 60.6211 64.6689 60.9529 64.6539 61.2864C64.6389 61.62 64.5388 61.9441 64.3633 62.2281C64.1877 62.5121 63.9425 62.7465 63.6508 62.909C63.3592 63.0714 63.0308 63.1567 62.697 63.1565H35.292C34.9581 63.1567 34.6297 63.0714 34.3381 62.909C34.0464 62.7465 33.8012 62.5121 33.6256 62.2281C33.4501 61.9441 33.35 61.62 33.335 61.2864C33.3201 60.9529 33.3906 60.6211 33.54 60.3225L47.243 32.9145H47.242ZM48.987 37.3515C47.709 37.3515 46.687 38.4605 46.737 39.7925L47.16 50.7905C47.199 51.8125 48.006 52.6205 48.987 52.6205C49.969 52.6205 50.776 51.8125 50.815 50.7905L51.237 39.7925C51.288 38.4605 50.267 37.3515 48.987 37.3515ZM46.293 58.4235C46.293 56.9055 47.473 55.6745 48.929 55.6745C50.385 55.6745 51.565 56.9045 51.565 58.4235C51.565 59.9415 50.385 61.1715 48.929 61.1715C47.473 61.1715 46.293 59.9415 46.293 58.4235Z" fill="#FF856A"/>
</g>
<defs>
<clipPath id="clip0_16906_76202">
<rect width="96" height="96" fill="white" transform="translate(0.5)"/>
</clipPath>
</defs>
</svg>