<svg width="36" height="37" viewBox="0 0 36 37" fill="none" xmlns="http://www.w3.org/2000/svg">
<circle cx="18.1415" cy="18.4794" r="14.1493" fill="white"/>
<path d="M27.1238 11.9741L27.2008 11.9003V11.7936V11.501V11.251H26.9508H22.0811H21.912L21.8491 11.4079L18.5941 19.5147L14.8921 11.3905L14.8255 11.2442H14.6646H9.55402H9.30402V11.4942V11.7936V11.8838L9.36164 11.9532L11.0067 13.9355L11.0185 13.9498L11.0322 13.9621C11.1393 14.058 11.1892 14.1892 11.1743 14.323L11.1728 14.3368V14.3506V22.1284V22.1489L11.1761 22.1691C11.1926 22.2689 11.1854 22.3713 11.1552 22.4679C11.125 22.5645 11.0726 22.6527 11.0022 22.7254L10.9954 22.7325L10.9891 22.74L9.13762 24.9804L9.08033 25.0498V25.1397V25.4391V25.6891H9.33033H14.5889H14.8389V25.4391V25.1397V25.0498L14.7816 24.9804L12.9301 22.74L12.9232 22.7317L12.9157 22.724C12.7681 22.5739 12.6973 22.3654 12.7267 22.1646L12.7293 22.1466V22.1284V16.5446L16.8568 25.5399L16.9237 25.6857H17.084H17.6174H17.7876L17.85 25.5274L21.3252 16.7156V23.4121C21.3252 23.4672 21.3251 23.5004 21.3234 23.5266C21.3227 23.5386 21.3218 23.5461 21.321 23.5509L21.3201 23.5555L21.3199 23.5564L21.3199 23.5563C21.32 23.5561 21.32 23.5562 21.3198 23.5565C21.3195 23.5572 21.318 23.5598 21.3142 23.565C21.3057 23.5766 21.29 23.5949 21.2586 23.6264C21.2581 23.6268 21.2577 23.6272 21.2573 23.6276L19.8386 25.0051L19.7627 25.0787V25.1844V25.4701V25.7201H20.0127H26.9233H27.1733V25.4701V25.1707V25.0654L27.098 24.9919L25.7214 23.6463L25.7081 23.6333L25.693 23.6224C25.6501 23.5914 25.6251 23.5359 25.6352 23.472L25.6383 23.4525V23.4327V13.5315V13.5113L25.6351 13.4914C25.6257 13.4338 25.6483 13.3755 25.6967 13.3392L25.7087 13.3301L25.7196 13.3197L27.1238 11.9741ZM2.97266 18.4804C2.97266 10.1042 9.76437 3.3125 18.1406 3.3125C26.5167 3.3125 33.3085 10.1042 33.3085 18.4804C33.3085 26.8566 26.5167 33.6483 18.1406 33.6483C9.76437 33.6483 2.97266 26.8566 2.97266 18.4804Z" fill="#121212" stroke="url(#paint0_linear_15895_37509)" stroke-width="0.5"/>
<defs>
<linearGradient id="paint0_linear_15895_37509" x1="7.84587" y1="4.84662" x2="26.4469" y2="36.0506" gradientUnits="userSpaceOnUse">
<stop stop-color="#FFEA7F"/>
<stop offset="1" stop-color="#AB5706"/>
</linearGradient>
</defs>
</svg>
