<svg xmlns="http://www.w3.org/2000/svg" width="32" height="32" viewBox="0 0 32 32" fill="none">
  <g clip-path="url(#clip0_16007_41385)">
    <path d="M16 32C24.8366 32 32 24.8366 32 16C32 7.16344 24.8366 0 16 0C7.16344 0 0 7.16344 0 16C0 24.8366 7.16344 32 16 32Z" fill="url(#paint0_linear_16007_41385)"/>
    <path d="M27.6465 16.2285H24.786C24.786 10.4413 20.0437 5.75 14.1936 5.75C8.41578 5.75 3.71838 10.3264 3.60343 16.0146C3.48448 21.8942 9.06073 27 15.0051 27H15.7528C20.9936 27 28.0177 22.9417 29.1152 17.9968C29.318 17.0853 28.59 16.2285 27.6465 16.2285ZM9.94271 16.4863C9.94271 17.2603 9.30286 17.8932 8.52053 17.8932C7.73821 17.8932 7.09838 17.26 7.09838 16.4863V14.2104C7.09838 13.4364 7.73821 12.8035 8.52053 12.8035C9.30286 12.8035 9.94271 13.4364 9.94271 14.2104V16.4863ZM14.8811 16.4863C14.8811 17.2603 14.2413 17.8932 13.4589 17.8932C12.6766 17.8932 12.0368 17.26 12.0368 16.4863V14.2104C12.0368 13.4364 12.6769 12.8035 13.4589 12.8035C14.2413 12.8035 14.8811 13.4364 14.8811 14.2104V16.4863Z" fill="url(#paint1_linear_16007_41385)"/>
  </g>
  <defs>
    <linearGradient id="paint0_linear_16007_41385" x1="16" y1="0" x2="16" y2="32" gradientUnits="userSpaceOnUse">
      <stop stop-color="#534BB1"/>
      <stop offset="1" stop-color="#551BF9"/>
    </linearGradient>
    <linearGradient id="paint1_linear_16007_41385" x1="16.3755" y1="5.75" x2="16.3755" y2="27" gradientUnits="userSpaceOnUse">
      <stop stop-color="white"/>
      <stop offset="1" stop-color="white" stop-opacity="0.82"/>
    </linearGradient>
    <clipPath id="clip0_16007_41385">
      <rect width="32" height="32" fill="white"/>
    </clipPath>
  </defs>
</svg>