<svg width="36" height="37" viewBox="0 0 36 37" fill="none" xmlns="http://www.w3.org/2000/svg">
<circle cx="17.6571" cy="18.4794" r="14.1493" fill="white"/>
<path d="M18.1132 14.214L18.1133 14.2139C20.2526 13.3239 21.5511 12.7989 22.3878 12.4952C23.2201 12.1932 23.6218 12.0997 23.956 12.0941M18.1132 14.214L23.9602 12.3441M18.1132 14.214C16.612 14.8391 13.6127 16.1306 9.1207 18.0877C8.74914 18.2354 8.44975 18.3879 8.23417 18.5481C8.02453 18.7039 7.85217 18.8983 7.82203 19.1393L7.82199 19.1397M18.1132 14.214L7.82199 19.1397M23.956 12.0941L23.9602 12.3441M23.956 12.0941C23.9556 12.0941 23.9552 12.0941 23.9549 12.0941L23.9602 12.3441M23.956 12.0941C24.2212 12.0887 24.4813 12.1669 24.6996 12.3176L24.711 12.3254L24.7215 12.3345C24.8906 12.4813 24.9988 12.6859 25.0251 12.9081M23.9602 12.3441C24.1732 12.3395 24.3823 12.4023 24.5576 12.5233C24.6808 12.6302 24.7592 12.7795 24.7773 12.9415M25.0251 12.9081C25.0249 12.9067 25.0247 12.9052 25.0244 12.9037L24.7773 12.9415M25.0251 12.9081C25.0253 12.91 25.0256 12.9118 25.0258 12.9137L24.7773 12.9415M25.0251 12.9081C25.0581 13.1258 25.0671 13.3464 25.0518 13.566L25.0513 13.5722L25.0513 13.5722C24.8188 16.023 23.8126 21.9481 23.302 24.6781L23.0563 24.6321L24.8024 13.5486C24.8165 13.3459 24.8081 13.1423 24.7773 12.9415M20.6993 16.1369C20.7089 16.0964 20.7186 15.9442 20.628 15.8651C20.5393 15.7842 20.4044 15.8112 20.3081 15.8343L20.6993 16.1369ZM20.6993 16.1369C20.6425 16.3812 18.4141 18.4546 17.2048 19.5798L17.1416 19.6387L20.6993 16.1369ZM7.82199 19.1397C7.80018 19.3164 7.84033 19.4769 7.93452 19.6149C8.02386 19.7458 8.15288 19.8436 8.28978 19.9215C8.55225 20.0708 8.91911 20.1866 9.29984 20.3067L9.32464 20.3146L9.32494 20.3147M7.82199 19.1397L9.32494 20.3147M9.32494 20.3147L9.65968 20.4198C9.66011 20.42 9.66055 20.4201 9.66098 20.4203C10.0575 20.5495 10.5243 20.6899 10.9631 20.7998C11.3965 20.9083 11.8224 20.9923 12.1274 20.9987M9.32494 20.3147L20.3839 16.0733M20.3839 16.0733C20.3817 16.0744 20.379 16.0758 20.3759 16.0774C20.3567 16.0876 20.3284 16.1036 20.2896 16.1266C20.2126 16.1723 20.1029 16.2402 19.9597 16.3312C19.6738 16.5128 19.2604 16.7823 18.7188 17.1402C17.6362 17.8556 16.0455 18.9216 13.9464 20.3386C13.3086 20.7783 12.7004 21.0118 12.1274 20.9987M20.3839 16.0733C20.3992 16.0698 20.4132 16.0669 20.4266 16.0647C20.4376 16.0629 20.447 16.0618 20.4549 16.0612C20.455 16.0628 20.4551 16.0644 20.4551 16.0659C20.4411 16.0861 20.4189 16.1147 20.3872 16.1525C20.3216 16.2308 20.2265 16.3345 20.1064 16.4597C19.8669 16.7093 19.5386 17.0324 19.1728 17.3846C18.4668 18.0642 17.6283 18.8443 17.0341 19.3972L16.9713 19.4557L16.9711 19.4558C16.9037 19.5187 16.8394 19.5786 16.7791 19.6348C16.5115 19.8841 16.3208 20.0619 16.2718 20.1126L16.4517 20.2862L16.273 20.1114C16.156 20.2309 16.0372 20.3485 15.9164 20.4641L15.9159 20.4646L15.9101 20.4702C15.7317 20.642 15.5513 20.8158 15.4081 20.9894C15.2639 21.164 15.1374 21.3615 15.0932 21.5854C14.996 22.0774 15.3144 22.5107 15.9805 22.9501L20.3839 16.0733ZM12.1274 20.9987C12.1272 20.9987 12.1271 20.9987 12.127 20.9987L12.1327 20.7488L12.1275 20.9987C12.1274 20.9987 12.1274 20.9987 12.1274 20.9987ZM19.9356 25.6182L20.0806 25.4146L19.9355 25.6182C19.9355 25.6182 19.9355 25.6182 19.9356 25.6182ZM17.6155 24.0485L17.7564 23.842L17.6154 24.0484C17.6154 24.0484 17.6155 24.0485 17.6155 24.0485ZM20.4676 16.0464C20.4676 16.0465 20.4674 16.0469 20.4669 16.0477L20.4676 16.0464ZM32.8241 18.4804C32.8241 22.5032 31.226 26.3612 28.3815 29.2057C25.537 32.0503 21.679 33.6483 17.6562 33.6483C13.6334 33.6483 9.77539 32.0503 6.93086 29.2057C4.08632 26.3612 2.48828 22.5032 2.48828 18.4804C2.48828 14.4576 4.08632 10.5996 6.93086 7.75508C9.77539 4.91054 13.6334 3.3125 17.6562 3.3125C21.679 3.3125 25.537 4.91054 28.3815 7.75508C31.226 10.5996 32.8241 14.4576 32.8241 18.4804Z" fill="#121212" stroke="url(#paint0_linear_15895_37484)" stroke-width="0.5"/>
<defs>
<linearGradient id="paint0_linear_15895_37484" x1="7.3615" y1="4.84662" x2="25.9626" y2="36.0506" gradientUnits="userSpaceOnUse">
<stop stop-color="#FFEA7F"/>
<stop offset="1" stop-color="#AB5706"/>
</linearGradient>
</defs>
</svg>
