<svg width="36" height="37" viewBox="0 0 36 37" fill="none" xmlns="http://www.w3.org/2000/svg">
<circle cx="18.1757" cy="18.4804" r="15.1679" fill="#121212" stroke="url(#paint0_linear_15895_37438)" stroke-width="0.5"/>
<path d="M22.4155 20.2416L22.3985 20.3816H22.5396H25.8037H25.9013L25.925 20.2869C26.0815 19.6609 26.1798 19.0036 26.1798 18.3252C26.1798 17.6467 26.0815 16.9894 25.925 16.3634L25.9013 16.2687H25.8037H22.5396H22.3985L22.4155 16.4088C22.4925 17.0439 22.5498 17.6757 22.5498 18.3252C22.5498 18.9747 22.4925 19.6064 22.4155 20.2416ZM20.7203 25.5666L20.5679 25.8485L20.871 25.7442C22.6609 25.1279 24.1692 23.8879 25.1199 22.2508L25.229 22.063H25.0118H22.163H22.0659L22.0419 22.157C21.7352 23.355 21.2946 24.5042 20.7203 25.5666ZM20.5889 20.3816H20.698L20.7127 20.2735C20.7999 19.634 20.8684 18.9902 20.8684 18.3252C20.8684 17.6602 20.7999 17.0068 20.7127 16.3766L20.6977 16.2687H20.5889H16.0693H15.962L15.9457 16.3747C15.8484 17.0077 15.7898 17.6612 15.7898 18.3252C15.7898 18.9893 15.8484 19.633 15.9457 20.2753L15.9618 20.3816H16.0693H20.5889ZM18.2263 26.0834L18.3291 26.232L18.4319 26.0834C19.24 24.915 19.8935 23.6184 20.2938 22.2225L20.3395 22.063H20.1736H16.4845H16.3187L16.3644 22.2225C16.7646 23.6184 17.4181 24.915 18.2263 26.0834ZM14.4662 14.5873H14.561L14.5866 14.496C14.9227 13.2954 15.3542 12.1457 15.9282 11.0838L16.0798 10.8032L15.7779 10.906C13.9865 11.516 12.479 12.7583 11.5378 14.4001L11.4306 14.5873H11.6463H14.4662ZM11.6463 22.063H11.4296L11.5381 22.2506C12.4849 23.8872 13.9901 25.1276 15.7774 25.7442L16.0807 25.8488L15.9282 25.5666C15.3542 24.5047 14.9227 23.3549 14.5866 22.1543L14.561 22.063H14.4662H11.6463ZM10.7331 20.2869L10.7568 20.3816H10.8544H14.1185H14.2596L14.2426 20.2416C14.1656 19.6064 14.1083 18.9747 14.1083 18.3252C14.1083 17.6757 14.1656 17.0439 14.2426 16.4088L14.2596 16.2687H14.1185H10.8544H10.7568L10.7331 16.3634C10.5766 16.9894 10.4783 17.6467 10.4783 18.3252C10.4783 19.0036 10.5766 19.6609 10.7331 20.2869ZM18.4319 10.5573L18.3291 10.4086L18.2263 10.5573C17.418 11.7259 16.7645 13.0322 16.3644 14.4278L16.3187 14.5873H16.4845H20.1736H20.3395L20.2938 14.4278C19.8936 13.0322 19.2402 11.7259 18.4319 10.5573ZM25.0118 14.5873H25.2285L25.1201 14.3997C24.178 12.7707 22.6764 11.5243 20.8708 10.9061L20.5698 10.803L20.7201 11.0834C21.2982 12.1617 21.742 13.3067 22.0418 14.4929L22.0656 14.5873H22.163H25.0118ZM8.79688 18.3252C8.79688 13.0825 13.0579 8.79297 18.3291 8.79297C19.5809 8.79297 20.8204 9.03953 21.9769 9.51856C23.1334 9.9976 24.1842 10.6997 25.0693 11.5849C25.9545 12.47 26.6566 13.5209 27.1357 14.6773C27.6147 15.8338 27.8613 17.0734 27.8613 18.3252C27.8613 20.8533 26.857 23.2778 25.0693 25.0654C23.2817 26.8531 20.8572 27.8574 18.3291 27.8574C17.0773 27.8574 15.8378 27.6108 14.6813 27.1318C13.5248 26.6527 12.4739 25.9506 11.5888 25.0654C9.80116 23.2778 8.79688 20.8533 8.79688 18.3252Z" fill="white" stroke="url(#paint1_linear_15895_37438)" stroke-width="0.25"/>
<defs>
<linearGradient id="paint0_linear_15895_37438" x1="7.88103" y1="4.84662" x2="26.4821" y2="36.0506" gradientUnits="userSpaceOnUse">
<stop stop-color="#FFEA7F"/>
<stop offset="1" stop-color="#AB5706"/>
</linearGradient>
<linearGradient id="paint1_linear_15895_37438" x1="11.8809" y1="9.78547" x2="23.5319" y2="29.3305" gradientUnits="userSpaceOnUse">
<stop stop-color="#FFEA7F"/>
<stop offset="1" stop-color="#AB5706"/>
</linearGradient>
</defs>
</svg>
