<svg width="37" height="37" viewBox="0 0 37 37" fill="none" xmlns="http://www.w3.org/2000/svg">
<path d="M3.04688 18.2773C3.04688 9.90017 9.83767 3.10938 18.2148 3.10938C26.5919 3.10938 33.3827 9.90017 33.3827 18.2773C33.3827 26.6544 26.5919 33.4452 18.2148 33.4452C9.83767 33.4452 3.04688 26.6544 3.04688 18.2773Z" stroke="url(#paint0_linear_15895_37461)" stroke-width="0.5"/>
<path d="M17.7979 20.3594L12.8574 26.0047H10.4278L16.6961 18.8403L16.7635 18.7633L16.7013 18.6821L10.0498 9.98438H15.4301L19.325 15.1338L19.4177 15.2563L19.5188 15.1407L24.0297 9.98438H26.4576L20.6089 16.669L20.5419 16.7456L20.6033 16.8267L27.5456 26.0047H22.3042L17.9913 20.3658L17.8985 20.2445L17.7979 20.3594ZM22.9049 24.5536L22.9425 24.6026H23.0042H24.5336H24.7849L24.6333 24.4022L14.761 11.3493L14.7235 11.2997H14.6613H13.0201H12.7671L12.9208 11.5006L22.9049 24.5536Z" fill="white" stroke="url(#paint1_linear_15895_37461)" stroke-width="0.25"/>
<defs>
<linearGradient id="paint0_linear_15895_37461" x1="7.92009" y1="4.64349" x2="26.5212" y2="35.8475" gradientUnits="userSpaceOnUse">
<stop stop-color="#FFEA7F"/>
<stop offset="1" stop-color="#AB5706"/>
</linearGradient>
<linearGradient id="paint1_linear_15895_37461" x1="12.7875" y1="10.8008" x2="22.1061" y2="28.0949" gradientUnits="userSpaceOnUse">
<stop stop-color="#FFEA7F"/>
<stop offset="1" stop-color="#AB5706"/>
</linearGradient>
</defs>
</svg>
