<svg width="14" height="14" viewBox="0 0 14 14" fill="none" xmlns="http://www.w3.org/2000/svg">
<path d="M7.33073 0.333496C6.01219 0.333496 4.72326 0.724496 3.62693 1.45704C2.5306 2.18958 1.67612 3.23077 1.17154 4.44895C0.666951 5.66712 0.534929 7.00757 0.792164 8.30077C1.0494 9.59393 1.68434 10.7818 2.61669 11.7142C3.54904 12.6465 4.73693 13.2815 6.03013 13.5387C7.32334 13.7959 8.66378 13.6639 9.88196 13.1593C11.1002 12.6548 12.1414 11.8003 12.8739 10.7039C13.6064 9.60763 13.9974 8.31871 13.9974 7.00017C13.9974 6.12469 13.825 5.25779 13.49 4.44895C13.1549 3.64011 12.6639 2.90518 12.0448 2.28613C11.4258 1.66707 10.6908 1.17601 9.88196 0.840966C9.07312 0.505936 8.20621 0.333496 7.33073 0.333496ZM7.33073 12.3335C6.2759 12.3335 5.24475 12.0207 4.36769 11.4346C3.49063 10.8486 2.80704 10.0157 2.40338 9.04113C1.99971 8.06661 1.89409 6.99425 2.09988 5.95969C2.30567 4.92512 2.81362 3.97481 3.5595 3.22893C4.30538 2.48305 5.25569 1.9751 6.29025 1.76932C7.32482 1.56353 8.39717 1.66915 9.37171 2.07281C10.3463 2.47648 11.1792 3.16007 11.7653 4.03713C12.3513 4.91419 12.6641 5.94534 12.6641 7.00017C12.6641 8.41466 12.1022 9.77123 11.102 10.7714C10.1018 11.7716 8.74522 12.3335 7.33073 12.3335ZM7.9974 6.9535V3.66684C7.9974 3.49003 7.92716 3.32046 7.80214 3.19543C7.67711 3.07041 7.50754 3.00017 7.33073 3.00017C7.15392 3.00017 6.98435 3.07041 6.85933 3.19543C6.73431 3.32046 6.66407 3.49003 6.66407 3.66684V7.00017C6.66407 7.00017 6.66407 7.04684 6.66407 7.0735C6.64766 7.20903 6.67326 7.34633 6.7374 7.46684L7.7374 9.20013C7.82581 9.35403 7.9717 9.46643 8.14298 9.51263C8.31426 9.55893 8.49691 9.53523 8.65073 9.44683C8.80456 9.35843 8.91697 9.21253 8.96322 9.04123C9.00948 8.86993 8.98581 8.68733 8.8974 8.53353L7.9974 6.9535Z" fill="#C4C4C4"/>
</svg>
