<svg xmlns="http://www.w3.org/2000/svg" width="33" height="32" viewBox="0 0 33 32" fill="none">
  <path fill-rule="evenodd" clip-rule="evenodd" d="M22.3882 7.2962V7.8082C22.3882 8.35136 22.1724 8.87228 21.7883 9.25635C21.4043 9.64042 20.8834 9.85619 20.3402 9.85619H12.6602C12.117 9.85619 11.5961 9.64042 11.212 9.25635C10.828 8.87228 10.6122 8.35136 10.6122 7.8082V7.2962H8.82019C8.34492 7.2962 7.88912 7.48499 7.55305 7.82106C7.21699 8.15713 7.02819 8.61293 7.02819 9.0882V21.4754C7.02819 21.5763 7.00832 21.6761 6.96973 21.7693C6.93113 21.8625 6.87456 21.9471 6.80325 22.0185C6.73193 22.0898 6.64727 22.1463 6.55409 22.1849C6.46091 22.2235 6.36104 22.2434 6.26019 22.2434C6.15933 22.2434 6.05946 22.2235 5.96629 22.1849C5.87311 22.1463 5.78844 22.0898 5.71713 22.0185C5.64581 21.9471 5.58924 21.8625 5.55065 21.7693C5.51205 21.6761 5.49219 21.5763 5.49219 21.4754V9.0882C5.49219 8.20555 5.84282 7.35907 6.46694 6.73494C7.09106 6.11082 7.93755 5.7602 8.82019 5.7602H10.6122V5.2482C10.6122 4.117 11.529 3.2002 12.6602 3.2002H20.3402C21.4714 3.2002 22.3882 4.117 22.3882 5.2482V5.7602H24.1802C25.0628 5.7602 25.9093 6.11082 26.5334 6.73494C27.1576 7.35907 27.5082 8.20555 27.5082 9.0882V25.4722C27.5082 26.3548 27.1576 27.2013 26.5334 27.8254C25.9093 28.4496 25.0628 28.8002 24.1802 28.8002H12.9162C12.7125 28.8002 12.5172 28.7193 12.3731 28.5753C12.2291 28.4312 12.1482 28.2359 12.1482 28.0322C12.1482 27.8285 12.2291 27.6332 12.3731 27.4891C12.5172 27.3451 12.7125 27.2642 12.9162 27.2642H24.1802C24.4155 27.2642 24.6485 27.2178 24.866 27.1278C25.0834 27.0377 25.2809 26.9057 25.4473 26.7393C25.6137 26.5729 25.7457 26.3754 25.8358 26.158C25.9258 25.9405 25.9722 25.7075 25.9722 25.4722V9.0882C25.9722 8.85287 25.9258 8.61984 25.8358 8.40243C25.7457 8.18501 25.6137 7.98746 25.4473 7.82106C25.2809 7.65466 25.0834 7.52266 24.866 7.4326C24.6485 7.34255 24.4155 7.2962 24.1802 7.2962H22.3882ZM12.1482 5.2482C12.1482 5.1124 12.2021 4.98218 12.2981 4.88616C12.3942 4.79014 12.5244 4.7362 12.6602 4.7362H20.3402C20.4074 4.7362 20.474 4.74944 20.5361 4.77517C20.5982 4.8009 20.6547 4.83861 20.7022 4.88616C20.7498 4.9337 20.7875 4.99014 20.8132 5.05226C20.8389 5.11438 20.8522 5.18096 20.8522 5.2482V7.8082C20.8522 7.87543 20.8389 7.94201 20.8132 8.00413C20.7875 8.06625 20.7498 8.12269 20.7022 8.17023C20.6547 8.21778 20.5982 8.25549 20.5361 8.28122C20.474 8.30695 20.4074 8.3202 20.3402 8.3202H12.6602C12.5244 8.3202 12.3942 8.26625 12.2981 8.17023C12.2021 8.07422 12.1482 7.94399 12.1482 7.8082V5.2482Z" fill="#FFB703"/>
  <path d="M14.9434 19.315C15.0147 19.3863 15.0713 19.471 15.1099 19.5642C15.1486 19.6574 15.1684 19.7573 15.1684 19.8582C15.1684 19.959 15.1486 20.0589 15.1099 20.1521C15.0713 20.2454 15.0147 20.33 14.9434 20.4014L6.89536 28.4494C6.82392 28.5208 6.73911 28.5775 6.64577 28.6161C6.55243 28.6548 6.45239 28.6747 6.35136 28.6747C6.25033 28.6747 6.15029 28.6548 6.05695 28.6161C5.96361 28.5775 5.8788 28.5208 5.80736 28.4494C5.73592 28.3779 5.67926 28.2931 5.64059 28.1998C5.60193 28.1064 5.58203 28.0064 5.58203 27.9054C5.58203 27.8043 5.60193 27.7043 5.64059 27.6109C5.67926 27.5176 5.73592 27.4328 5.80736 27.3614L13.8554 19.3134C13.9267 19.2418 14.0115 19.1849 14.1048 19.1462C14.1982 19.1074 14.2983 19.0875 14.3994 19.0875C14.5004 19.0875 14.6005 19.1074 14.6939 19.1462C14.7872 19.1849 14.872 19.2418 14.9434 19.3134V19.315ZM17.0378 20.7262C17.0378 20.5836 16.9811 20.4468 16.8803 20.346C16.7795 20.2452 16.6427 20.1886 16.5002 20.1886C16.3576 20.1886 16.2208 20.2452 16.12 20.346C16.0192 20.4468 15.9626 20.5836 15.9626 20.7262V22.707C15.9626 22.8495 16.0192 22.9863 16.12 23.0871C16.2208 23.1879 16.3576 23.2446 16.5002 23.2446C16.6427 23.2446 16.7795 23.1879 16.8803 23.0871C16.9811 22.9863 17.0378 22.8495 17.0378 22.707V20.7262ZM14.0682 17.7566C14.0682 18.0542 13.8282 18.2942 13.5306 18.2942H11.5498C11.4072 18.2942 11.2704 18.2375 11.1696 18.1367C11.0688 18.0359 11.0122 17.8991 11.0122 17.7566C11.0122 17.614 11.0688 17.4772 11.1696 17.3764C11.2704 17.2756 11.4072 17.219 11.5498 17.219H13.5306C13.8282 17.219 14.0682 17.459 14.0682 17.7566ZM18.9802 19.4782C18.8785 19.3819 18.7432 19.329 18.6032 19.3309C18.4632 19.3328 18.3294 19.3893 18.2304 19.4884C18.1313 19.5874 18.0749 19.7211 18.073 19.8612C18.071 20.0012 18.1239 20.1365 18.2202 20.2382L19.6218 21.6382C19.7234 21.7345 19.8587 21.7873 19.9987 21.7854C20.1388 21.7835 20.2725 21.727 20.3716 21.628C20.4706 21.5289 20.5271 21.3952 20.529 21.2551C20.5309 21.1151 20.4781 20.9798 20.3818 20.8782L18.9802 19.4782ZM12.6186 13.8766C12.7194 13.7758 12.8561 13.7192 12.9986 13.7192C13.1411 13.7192 13.2778 13.7758 13.3786 13.8766L14.7802 15.2766C14.8765 15.3782 14.9293 15.5135 14.9274 15.6535C14.9255 15.7936 14.869 15.9273 14.77 16.0264C14.6709 16.1254 14.5372 16.1819 14.3971 16.1838C14.2571 16.1857 14.1218 16.1329 14.0202 16.0366L12.6186 14.6366C12.5178 14.5357 12.4612 14.3991 12.4612 14.2566C12.4612 14.114 12.5178 13.9774 12.6186 13.8766ZM21.4506 18.2942C21.5931 18.2942 21.7299 18.2375 21.8307 18.1367C21.9315 18.0359 21.9882 17.8991 21.9882 17.7566C21.9882 17.614 21.9315 17.4772 21.8307 17.3764C21.7299 17.2756 21.5931 17.219 21.4506 17.219H19.4682C19.3256 17.219 19.1888 17.2756 19.088 17.3764C18.9872 17.4772 18.9306 17.614 18.9306 17.7566C18.9306 17.8991 18.9872 18.0359 19.088 18.1367C19.1888 18.2375 19.3256 18.2942 19.4682 18.2942H21.4506ZM16.5002 12.2686C16.7962 12.2686 17.0378 12.5086 17.0378 12.8062V14.7886C17.0378 14.9311 16.9811 15.0679 16.8803 15.1687C16.7795 15.2695 16.6427 15.3262 16.5002 15.3262C16.3576 15.3262 16.2208 15.2695 16.12 15.1687C16.0192 15.0679 15.9626 14.9311 15.9626 14.7886V12.8062C15.9626 12.5102 16.2026 12.2686 16.5002 12.2686ZM20.3818 14.6366C20.4825 14.5356 20.5391 14.3987 20.5389 14.256C20.5388 14.1133 20.482 13.9765 20.381 13.8758C20.28 13.775 20.1431 13.7184 20.0004 13.7186C19.8577 13.7187 19.7209 13.7756 19.6202 13.8766L18.2202 15.2766C18.1239 15.3782 18.071 15.5135 18.073 15.6535C18.0749 15.7936 18.1313 15.9273 18.2304 16.0264C18.3294 16.1254 18.4632 16.1819 18.6032 16.1838C18.7432 16.1857 18.8785 16.1329 18.9802 16.0366L20.3818 14.6366Z" fill="#FFB703"/>
</svg>