<svg xmlns="http://www.w3.org/2000/svg" width="28" height="29" viewBox="0 0 22 23" fill="none">
  <path d="M5 5.5L7 3.5M7 3.5L5 1.5M7 3.5H5C2.79086 3.5 1 5.29086 1 7.5M17 17.5L15 19.5M15 19.5L17 21.5M15 19.5H17C19.2091 19.5 21 17.7091 21 15.5M9.18903 6C9.85509 3.41216 12.2042 1.5 15 1.5C18.3137 1.5 21 4.18629 21 7.5C21 10.2957 19.0879 12.6449 16.5001 13.311M13 15.5C13 18.8137 10.3137 21.5 7 21.5C3.68629 21.5 1 18.8137 1 15.5C1 12.1863 3.68629 9.5 7 9.5C10.3137 9.5 13 12.1863 13 15.5Z" stroke="#C4C4C4" stroke-width="2" stroke-linecap="round" stroke-linejoin="round"/>
</svg>