<svg xmlns="http://www.w3.org/2000/svg" width="48" height="49" viewBox="0 0 48 49" fill="none">
<path d="M10.6326 39.5057C11.8492 36.6393 14.6898 34.6289 18 34.6289H30C33.3102 34.6289 36.1507 36.6393 37.3674 39.5057M32 19.6289C32 24.0472 28.4183 27.6289 24 27.6289C19.5817 27.6289 16 24.0472 16 19.6289C16 15.2106 19.5817 11.6289 24 11.6289C28.4183 11.6289 32 15.2106 32 19.6289ZM44 24.6289C44 35.6746 35.0457 44.6289 24 44.6289C12.9543 44.6289 4 35.6746 4 24.6289C4 13.5832 12.9543 4.62891 24 4.62891C35.0457 4.62891 44 13.5832 44 24.6289Z" stroke="#FBFEFF" stroke-width="4" stroke-linecap="round" stroke-linejoin="round"/>
</svg>